<?xml version="1.0" standalone="no"?>
<!DOCTYPE svg PUBLIC "-//W3C//DTD SVG 20010904//EN"
 "http://www.w3.org/TR/2001/REC-SVG-20010904/DTD/svg10.dtd">
<svg version="1.0" xmlns="http://www.w3.org/2000/svg"
 width="906.000000pt" height="906.000000pt" viewBox="0 0 906.000000 906.000000"
 preserveAspectRatio="xMidYMid meet">
<metadata>
Created by potrace 1.11, written by Peter Selinger 2001-2013
</metadata>
<g transform="translate(0.000000,906.000000) scale(0.100000,-0.100000)"
fill="#000000" stroke="none">
<path d="M4290 8859 c0 -5 -5 -7 -12 -3 -8 5 -9 2 -4 -11 5 -15 4 -16 -8 -6
-13 11 -15 9 -11 -9 3 -16 0 -20 -11 -16 -9 3 -12 1 -9 -4 3 -6 2 -10 -3 -10
-6 0 -8 -9 -5 -20 3 -12 10 -17 17 -13 6 4 0 -7 -14 -24 -14 -17 -27 -29 -29
-27 -2 2 2 12 10 22 8 10 -3 0 -23 -22 -21 -22 -38 -34 -38 -28 0 6 5 14 10
17 6 3 10 11 10 17 0 6 -11 -1 -25 -16 -13 -14 -29 -26 -35 -26 -5 0 -10 -5
-10 -11 0 -5 -6 -7 -12 -3 -10 6 -10 5 -1 -8 13 -15 8 -28 -11 -28 -6 0 -4 5
4 10 8 5 10 10 4 10 -18 0 -24 -12 -13 -26 7 -8 6 -14 -2 -20 -8 -5 -10 -3 -5
7 4 8 -1 4 -12 -8 -11 -12 -23 -19 -26 -15 -4 3 -4 -2 0 -11 5 -13 1 -20 -15
-24 -11 -3 -21 -10 -21 -15 0 -5 6 -6 13 -2 9 6 9 5 0 -8 -7 -8 -9 -18 -5 -23
4 -4 -3 -2 -16 4 -22 12 -23 11 -11 -11 6 -13 8 -20 4 -16 -5 4 -15 3 -22 -4
-13 -10 -24 -14 -70 -20 -6 -1 -9 -8 -5 -16 3 -10 1 -13 -6 -8 -7 4 -12 2 -12
-4 0 -6 -5 -8 -12 -4 -8 5 -7 0 2 -11 8 -10 10 -16 3 -12 -7 4 -18 -2 -27 -15
-9 -12 -16 -18 -16 -12 0 5 5 15 12 22 9 9 9 12 0 12 -7 0 -12 -4 -12 -10 0
-5 -9 -18 -21 -29 -12 -11 -18 -24 -15 -30 4 -6 -2 -8 -13 -6 -14 3 -18 -1
-14 -11 3 -9 0 -14 -8 -12 -8 2 -13 -3 -11 -10 1 -8 -2 -11 -7 -7 -6 3 -8 13
-5 23 3 9 -1 6 -9 -7 -8 -13 -16 -19 -18 -13 -3 7 -11 5 -24 -5 -13 -10 -14
-14 -4 -10 9 3 16 0 16 -8 0 -10 -7 -11 -25 -4 -20 8 -23 7 -18 -6 4 -13 2
-14 -14 -5 -17 9 -22 7 -30 -12 -5 -13 -9 -17 -9 -10 -1 8 -6 10 -13 6 -19
-12 -48 -12 -55 -1 -4 6 -1 7 7 2 9 -5 11 -4 6 4 -4 6 -12 8 -18 5 -6 -4 -14
0 -19 7 -6 10 -9 10 -9 2 0 -7 -6 -10 -12 -8 -7 3 -19 1 -27 -4 -12 -7 -12
-13 -3 -24 14 -17 4 -31 -13 -17 -9 8 -12 4 -10 -15 2 -13 1 -34 -2 -46 -5
-16 -8 -18 -15 -7 -7 9 -8 6 -5 -10 4 -18 2 -21 -7 -13 -9 8 -12 6 -11 -7 0
-9 5 -23 9 -31 7 -10 4 -11 -13 -2 -12 7 -21 8 -21 2 0 -13 -29 -41 -41 -41
-6 0 -7 4 -4 10 3 6 -1 7 -9 4 -9 -3 -14 -10 -11 -14 3 -4 -4 -10 -16 -13 -17
-4 -18 -3 -8 9 10 12 8 14 -9 11 -12 -2 -25 -7 -29 -12 -5 -4 -2 -5 6 0 10 6
12 4 7 -4 -9 -13 -21 -6 -21 12 0 7 -8 11 -18 11 -9 -1 -17 3 -18 10 0 6 -4 1
-10 -12 -5 -14 -13 -20 -21 -16 -8 5 -9 2 -5 -9 4 -10 -1 -18 -14 -22 -10 -4
-19 -11 -19 -16 0 -6 6 -7 13 -4 6 4 3 -1 -8 -11 -17 -14 -17 -16 -2 -11 9 4
17 3 18 -1 0 -4 2 -15 4 -24 2 -12 -2 -15 -13 -11 -11 5 -13 3 -7 -8 7 -11 5
-11 -10 1 -16 14 -17 13 -11 -8 6 -18 4 -21 -10 -15 -13 5 -15 3 -9 -7 6 -10
4 -12 -8 -7 -18 7 -41 -15 -29 -29 4 -4 -1 -2 -11 5 -15 12 -17 12 -11 -3 4
-11 2 -16 -7 -14 -16 4 -19 -24 -4 -34 5 -5 -6 -5 -25 -2 -26 4 -31 3 -20 -5
12 -9 11 -11 -9 -11 -20 0 -22 -2 -11 -15 7 -9 10 -18 6 -22 -3 -3 -6 -1 -6 5
0 7 -4 12 -9 12 -5 0 -7 -9 -4 -20 4 -14 -3 -28 -23 -46 -22 -18 -24 -23 -9
-18 l20 7 -20 -20 c-13 -14 -22 -16 -27 -9 -5 7 -8 4 -8 -7 0 -10 -5 -15 -10
-12 -6 4 -10 3 -9 -2 3 -20 -2 -34 -10 -28 -6 3 -8 -4 -6 -16 3 -16 0 -20 -13
-15 -14 5 -13 3 2 -9 17 -12 17 -15 4 -15 -23 0 -28 -31 -9 -55 15 -19 15 -19
-3 -5 -18 14 -19 13 -13 -2 3 -10 1 -20 -5 -24 -7 -4 -8 -3 -4 4 4 7 5 12 2
12 -3 0 -10 -10 -17 -21 -6 -12 -7 -19 -2 -16 5 3 9 -3 9 -13 0 -14 -4 -16
-16 -10 -12 6 -17 5 -17 -5 0 -8 4 -12 9 -9 4 3 8 0 8 -5 0 -10 -14 -15 -33
-12 -4 1 -3 -8 3 -19 8 -15 8 -18 -4 -14 -9 4 -13 -3 -13 -20 0 -15 4 -23 10
-19 6 3 7 1 3 -5 -4 -7 -13 -12 -21 -12 -8 0 -17 -5 -21 -12 -4 -7 -3 -8 4 -4
7 4 12 2 12 -3 0 -6 -7 -11 -16 -11 -8 0 -12 -5 -9 -10 4 -6 11 -7 17 -4 7 4
8 2 4 -5 -4 -6 -12 -9 -17 -6 -5 4 -9 1 -9 -5 0 -6 -4 -8 -10 -5 -5 3 -10 2
-10 -4 0 -5 4 -11 9 -13 5 -1 3 -12 -6 -23 -13 -17 -15 -17 -9 -2 3 10 2 16
-3 13 -5 -3 -11 -15 -14 -27 -4 -16 -2 -19 10 -15 13 5 14 4 3 -9 -9 -11 -9
-15 -1 -15 7 0 5 -10 -6 -27 -17 -28 -17 -28 2 -13 19 14 19 14 6 -3 -8 -10
-21 -15 -29 -12 -12 4 -13 3 -3 -9 11 -13 9 -15 -9 -11 -18 3 -20 2 -10 -10
10 -11 10 -15 1 -15 -7 0 -9 -5 -5 -12 5 -8 2 -9 -9 -5 -9 3 -19 1 -23 -5 -4
-6 -3 -8 4 -4 6 3 13 2 17 -4 3 -5 0 -10 -7 -11 -7 0 -4 -4 7 -9 17 -7 17 -9
3 -9 -12 -1 -15 -6 -11 -18 5 -12 2 -15 -10 -10 -15 6 -16 4 -6 -15 9 -18 9
-20 -4 -15 -12 4 -15 1 -12 -14 3 -13 -6 -30 -22 -45 -14 -13 -21 -24 -16 -24
16 0 24 -28 11 -36 -6 -4 -8 -3 -4 4 3 6 1 14 -5 18 -8 4 -9 3 -5 -4 4 -7 1
-12 -6 -12 -10 0 -10 -2 1 -9 20 -13 24 -44 5 -37 -11 4 -12 2 -4 -14 8 -15 6
-22 -12 -34 -20 -14 -18 -21 5 -17 12 2 8 -6 -10 -20 -15 -12 -16 -12 -8 1 7
13 6 13 -6 1 -11 -10 -11 -15 -1 -18 6 -3 9 -10 5 -16 -8 -13 -11 -57 -3 -52
3 2 5 -10 6 -26 1 -18 -3 -26 -10 -22 -6 4 -5 -1 3 -10 7 -9 9 -17 4 -17 -5 0
-9 -9 -10 -20 -1 -13 2 -18 10 -13 7 4 6 0 -2 -10 -7 -9 -10 -24 -7 -33 5 -13
4 -14 -7 -6 -10 9 -14 8 -14 -3 0 -8 5 -15 10 -15 5 0 3 -8 -4 -17 -8 -9 -9
-14 -3 -10 6 3 16 -5 23 -20 11 -24 11 -25 -5 -12 -16 13 -16 12 -5 -8 8 -16
8 -23 1 -23 -6 0 -8 -6 -4 -12 5 -9 2 -8 -9 1 -15 12 -17 12 -11 -4 6 -14 4
-16 -7 -10 -8 4 -11 4 -6 0 4 -5 0 -17 -10 -27 -9 -10 -12 -18 -6 -18 5 0 10
-7 10 -15 0 -10 -4 -12 -11 -5 -11 8 -12 -2 -7 -53 1 -5 5 -6 9 -3 4 2 8 -4 8
-14 0 -15 -3 -17 -15 -7 -12 10 -13 9 -4 -8 6 -11 9 -28 8 -38 -2 -9 1 -15 6
-11 5 3 9 -2 9 -10 0 -8 -5 -18 -11 -21 -5 -4 -8 -12 -6 -18 2 -7 -3 -17 -12
-24 -14 -10 -12 -12 9 -8 21 4 23 2 10 -8 -19 -15 -20 -78 -1 -101 11 -13 11
-17 0 -21 -19 -7 -19 -187 -1 -193 10 -3 10 -7 0 -19 -11 -14 -10 -15 12 -9
14 4 20 4 13 -1 -14 -10 -13 -53 1 -53 6 0 5 -5 -2 -12 -17 -17 -15 -28 6 -28
14 0 15 2 2 10 -8 5 -10 10 -4 10 19 0 24 -13 11 -28 -17 -21 -17 -154 0 -148
7 3 12 2 12 -2 -3 -18 2 -33 9 -28 5 3 9 -1 9 -9 0 -8 -4 -12 -8 -10 -4 3 -10
-2 -13 -11 -3 -8 -2 -13 3 -9 5 3 8 -3 6 -12 -1 -11 -9 -17 -20 -15 -11 2 -14
-1 -9 -9 4 -7 3 -10 -4 -5 -5 3 -13 0 -16 -6 -3 -7 -4 -4 -1 8 4 14 0 21 -9
21 -8 0 -12 -6 -9 -14 3 -7 1 -13 -5 -13 -6 0 -9 11 -7 25 2 21 0 23 -12 13
-12 -10 -18 -9 -28 5 -11 15 -13 16 -19 2 -6 -16 -26 -16 -38 0 -5 6 -8 3 -8
-7 0 -11 -5 -15 -15 -12 -8 3 -26 -4 -41 -15 -15 -12 -22 -21 -17 -21 5 0 14
5 21 12 7 7 12 8 12 2 0 -15 -40 -35 -53 -27 -7 4 -5 -2 3 -12 9 -11 10 -16 3
-11 -12 7 -18 -5 -14 -28 1 -5 -5 -4 -13 3 -12 10 -14 9 -9 -10 4 -15 3 -20
-5 -15 -7 4 -12 2 -12 -3 0 -6 5 -11 10 -11 6 0 10 -5 10 -11 0 -5 -6 -7 -12
-3 -9 5 -9 2 1 -9 7 -10 9 -17 3 -17 -6 0 -9 -8 -8 -17 2 -10 8 -18 14 -18 6
0 14 -3 18 -7 3 -4 -3 -6 -15 -3 -11 2 -21 0 -21 -6 0 -5 6 -9 13 -9 8 0 7 -4
-3 -10 -10 -6 -11 -10 -2 -10 6 0 12 -5 12 -11 0 -5 -5 -7 -12 -3 -7 4 -8 3
-4 -5 4 -6 3 -18 -4 -26 -9 -11 -6 -13 14 -11 14 2 23 -1 20 -5 -3 -5 -13 -9
-22 -9 -15 0 -15 -2 -2 -10 13 -8 13 -11 1 -22 -11 -11 -13 -11 -6 1 5 10 4
12 -4 7 -15 -10 -5 -26 17 -27 14 0 13 -2 -3 -9 -11 -5 -14 -9 -7 -9 6 -1 12
-6 12 -12 0 -5 -4 -7 -10 -4 -5 3 -10 1 -10 -4 0 -6 4 -11 9 -11 5 0 8 -11 6
-25 -1 -14 2 -28 8 -32 6 -3 7 -1 3 5 -5 8 -1 10 10 5 11 -4 13 -8 6 -11 -7
-2 -9 -9 -5 -15 4 -6 0 -8 -10 -4 -11 4 -14 2 -10 -8 3 -8 9 -12 14 -9 8 5 13
-10 10 -30 -1 -4 4 -15 11 -24 10 -12 10 -14 1 -8 -7 4 -13 2 -13 -3 0 -6 8
-11 18 -11 15 -1 15 -2 -3 -16 -19 -14 -19 -15 9 -10 27 5 27 4 12 -13 -14
-15 -14 -18 -1 -18 8 0 15 5 15 10 0 6 3 7 6 4 4 -4 1 -13 -6 -22 -9 -11 -9
-15 -1 -15 7 0 9 -5 5 -12 -5 -8 -2 -9 11 -4 15 5 16 4 5 -9 -10 -12 -9 -15 5
-15 10 0 15 -3 11 -7 -3 -4 4 -13 16 -21 13 -8 16 -11 5 -8 -15 5 -16 2 -7
-14 6 -11 13 -20 16 -20 3 0 2 5 -2 12 -4 7 -3 8 5 4 9 -6 9 -11 1 -21 -8 -10
-5 -18 12 -35 25 -23 29 -38 15 -57 -6 -9 -5 -13 2 -13 7 0 9 -4 6 -10 -4 -6
1 -7 11 -3 14 5 15 3 5 -15 -10 -18 -9 -20 10 -17 17 4 19 2 8 -11 -10 -12 -9
-13 4 -8 12 4 14 1 10 -18 -6 -21 -5 -22 12 -8 17 14 18 14 5 -9 -11 -21 -10
-26 6 -38 10 -7 12 -13 6 -13 -8 0 -5 -9 7 -22 11 -11 18 -25 15 -29 -3 -5 2
-6 10 -3 9 3 16 1 16 -6 0 -6 6 -8 13 -4 6 4 9 3 4 -1 -4 -5 0 -20 10 -34 13
-20 13 -23 1 -14 -12 10 -15 10 -15 -2 0 -13 15 -19 38 -17 3 1 6 -6 6 -13 0
-11 -4 -12 -14 -3 -11 8 -12 7 -7 -6 3 -9 10 -16 16 -16 5 0 6 -5 2 -12 -5 -8
-2 -9 9 -5 19 7 32 -8 16 -19 -8 -5 -9 -3 -4 6 5 9 4 11 -4 6 -16 -11 -3 -26
16 -19 13 5 15 2 11 -15 -6 -22 1 -27 31 -22 12 1 12 -1 3 -13 -10 -11 -9 -17
5 -28 14 -12 16 -12 8 0 -6 10 -4 12 4 7 7 -5 10 -14 7 -21 -7 -19 5 -27 21
-13 11 8 12 7 7 -6 -5 -13 -2 -15 12 -9 17 6 17 5 5 -10 -12 -15 -12 -17 4
-11 13 5 16 4 11 -4 -4 -7 -1 -12 10 -12 11 0 15 -6 12 -18 -4 -13 1 -18 16
-20 17 -1 18 1 6 8 -8 5 -10 10 -4 10 18 0 24 -13 12 -27 -9 -11 -8 -13 3 -11
8 2 13 -3 11 -12 -1 -10 3 -8 13 5 16 19 16 19 11 -7 -3 -20 -1 -28 10 -28 8
0 12 4 9 10 -3 6 -1 10 5 10 6 0 10 -6 9 -12 -4 -30 2 -40 17 -34 11 4 15 2
11 -8 -7 -18 18 -42 28 -26 8 12 25 4 25 -13 0 -7 -4 -6 -10 3 -6 9 -10 10
-10 3 0 -17 17 -25 26 -12 5 8 13 4 26 -12 14 -18 17 -20 11 -5 -4 13 -3 17 5
12 7 -4 12 -14 12 -23 0 -13 3 -13 15 -3 9 7 18 10 22 6 3 -3 1 -6 -6 -6 -9 0
-9 -3 1 -13 10 -12 15 -12 26 -1 10 11 18 11 34 3 18 -10 20 -9 15 5 -8 20 0
21 18 2 8 -7 11 -18 7 -22 -4 -5 0 -3 8 4 21 19 28 15 22 -14 -3 -16 -1 -25 5
-21 5 3 15 -4 22 -16 11 -18 11 -20 0 -9 -20 19 -31 14 -17 -7 9 -15 9 -23 -3
-38 -13 -17 -13 -17 4 -4 16 13 18 12 13 -12 -3 -17 0 -26 7 -24 7 1 10 -12 8
-36 -2 -24 2 -39 11 -42 9 -4 13 -17 10 -42 -4 -28 -2 -34 9 -27 12 6 11 5 0
-10 -12 -14 -12 -19 -1 -29 9 -9 11 -9 6 0 -3 6 -1 15 6 19 7 4 10 4 6 -1 -4
-4 -2 -15 5 -23 9 -13 9 -14 0 -8 -9 5 -13 -1 -14 -21 0 -15 -2 -36 -4 -45 -2
-12 2 -15 13 -10 15 5 15 4 3 -11 -11 -14 -11 -17 0 -18 8 0 5 -4 -6 -9 -17
-7 -17 -9 -2 -9 9 -1 17 -6 17 -12 0 -5 -4 -8 -9 -4 -6 3 -8 -4 -6 -16 3 -13
-1 -29 -8 -38 -7 -8 -7 -12 -1 -8 6 3 20 0 30 -8 18 -13 18 -14 -6 -9 -14 3
-21 2 -15 -3 9 -7 11 -28 5 -43 -7 -19 -7 -39 1 -34 5 3 6 10 3 16 -4 7 -2 8
4 4 6 -4 8 -14 5 -23 -4 -10 -2 -14 4 -10 12 7 11 -32 -1 -52 -5 -8 -4 -16 4
-21 10 -6 9 -9 -1 -13 -11 -4 -11 -6 0 -6 11 -1 10 -5 -5 -16 -18 -13 -18 -14
6 -9 19 4 22 3 10 -5 -15 -11 -23 -61 -8 -61 4 0 8 -5 8 -11 0 -6 -6 -9 -14
-6 -11 4 -13 -1 -11 -24 3 -21 1 -28 -8 -22 -7 4 -7 0 2 -10 7 -9 9 -17 4 -17
-17 0 -12 -40 5 -41 14 0 13 -2 -3 -9 -11 -5 -14 -9 -7 -9 6 -1 12 -6 12 -12
0 -5 -5 -7 -12 -3 -7 5 -9 2 -5 -8 3 -9 0 -21 -6 -28 -9 -10 -9 -11 2 -5 11 6
13 4 8 -8 -3 -10 -2 -17 2 -17 5 0 11 -7 14 -14 4 -11 1 -13 -11 -9 -9 3 -14
3 -10 -2 4 -4 2 -15 -5 -23 -9 -13 -9 -14 1 -8 16 10 15 -6 -2 -30 -13 -17
-13 -21 6 -35 l21 -16 -26 -24 c-15 -12 -27 -27 -27 -33 0 -5 6 -2 13 9 11 14
16 15 22 5 5 -9 4 -11 -3 -6 -7 4 -12 1 -12 -8 0 -8 -7 -22 -16 -30 -9 -9 -11
-16 -4 -16 6 0 8 -5 5 -10 -5 -8 -12 -7 -23 2 -15 11 -15 11 -5 -3 7 -9 9 -20
5 -24 -4 -5 -2 -5 4 -2 6 3 11 -1 11 -9 0 -8 -6 -13 -14 -10 -11 4 -11 1 -3
-14 8 -16 8 -20 -3 -20 -8 0 -21 -8 -28 -17 -13 -16 -12 -17 4 -4 11 9 17 10
17 2 0 -6 -7 -14 -15 -17 -11 -4 -12 -10 -6 -18 7 -8 4 -12 -10 -13 -11 -1
-17 2 -14 7 4 6 -2 7 -11 3 -12 -4 -14 -8 -5 -11 9 -3 7 -10 -6 -25 -18 -21
-18 -21 2 -8 11 8 2 -3 -20 -24 -22 -20 -33 -32 -23 -26 11 9 18 9 23 1 4 -6
3 -9 -2 -8 -17 5 -53 -23 -53 -42 0 -10 -10 -26 -22 -34 -13 -10 -17 -16 -9
-16 8 0 12 -3 9 -6 -4 -3 -15 -1 -25 5 -17 8 -19 6 -19 -12 1 -15 -5 -22 -17
-21 -13 1 -15 -1 -8 -10 13 -16 -5 -36 -31 -36 -12 0 -18 -6 -16 -17 3 -17 -1
-19 -38 -22 -8 0 -13 -5 -9 -10 3 -6 -4 -8 -17 -5 -53 10 -88 13 -83 5 2 -5
-2 -14 -9 -20 -12 -10 -14 -8 -9 11 4 18 3 20 -6 8 -6 -8 -11 -10 -11 -5 0 6
-7 2 -15 -9 -9 -12 -22 -17 -34 -13 -18 4 -19 3 -9 -16 6 -12 7 -18 2 -14 -4
4 -14 -3 -22 -15 -7 -13 -11 -15 -8 -5 8 27 -3 20 -14 -9 -6 -14 -15 -22 -21
-18 -7 4 -6 -2 2 -17 11 -22 11 -23 -4 -10 -15 12 -17 11 -17 -3 0 -9 -5 -16
-11 -16 -5 0 -7 5 -3 12 4 7 3 8 -5 4 -6 -4 -10 -15 -9 -24 2 -12 -3 -16 -16
-14 -14 3 -17 -1 -12 -14 6 -16 5 -16 -20 0 -25 17 -25 17 -14 -3 6 -12 7 -21
3 -20 -22 4 -43 -2 -38 -11 3 -5 -7 -3 -22 5 -21 11 -29 12 -35 2 -4 -7 -8 -8
-8 -2 0 5 -7 -1 -16 -13 -8 -12 -21 -22 -27 -22 -7 0 -4 5 6 11 9 5 17 15 17
21 0 6 -10 2 -23 -10 -13 -12 -27 -19 -31 -15 -4 4 -4 0 0 -10 4 -13 1 -17
-14 -17 -11 0 -30 -13 -42 -30 -11 -16 -26 -27 -33 -24 -15 5 -58 -41 -49 -52
4 -5 -1 -2 -11 5 -16 13 -19 12 -24 -7 -3 -12 -10 -19 -16 -15 -6 4 -8 0 -4
-10 6 -16 -15 -41 -26 -30 -4 3 -7 0 -7 -8 0 -11 -2 -11 -10 1 -8 12 -10 12
-10 1 0 -8 -7 -11 -19 -8 -14 3 -18 1 -14 -9 5 -12 -13 -19 -39 -15 -4 0 -5
-6 -1 -15 5 -13 2 -15 -14 -10 -13 4 -25 0 -34 -11 -12 -16 -12 -17 1 -6 11 8
20 9 30 2 13 -9 13 -10 0 -8 -25 3 -85 -27 -69 -35 8 -3 4 -4 -9 -2 -12 2 -20
0 -16 -5 3 -5 -3 -9 -14 -9 -10 0 -24 -10 -31 -23 -6 -12 -10 -15 -7 -6 2 9
-2 16 -9 16 -7 0 -12 -8 -10 -19 3 -16 1 -17 -18 -6 -19 10 -20 9 -9 -4 10
-13 9 -15 -10 -14 -13 0 -27 -7 -33 -19 -5 -11 -18 -21 -29 -23 -12 -2 -16 1
-11 10 6 10 5 10 -5 1 -7 -6 -18 -10 -24 -9 -6 2 -8 1 -3 -1 17 -10 5 -25 -18
-21 -20 4 -23 3 -14 -8 9 -11 7 -14 -10 -14 -12 0 -20 -4 -17 -9 4 -5 -4 -7
-16 -4 -19 4 -20 3 -8 -7 12 -10 11 -11 -8 -7 -23 5 -56 -18 -47 -33 3 -5 1
-12 -5 -15 -6 -4 -10 -3 -9 2 4 26 -1 34 -15 21 -8 -7 -12 -16 -10 -19 2 -4
-3 -9 -11 -12 -10 -4 -12 -1 -9 11 2 9 -1 7 -7 -5 -7 -13 -16 -23 -21 -23 -5
0 -6 6 -3 13 4 6 -2 2 -13 -10 -11 -13 -25 -23 -31 -23 -6 0 -11 -6 -11 -12 0
-9 -3 -8 -9 2 -6 8 -7 18 -4 24 3 5 1 6 -5 2 -6 -4 -9 -13 -6 -20 3 -8 0 -17
-7 -22 -8 -4 -10 -3 -5 4 4 7 2 12 -3 12 -6 0 -11 -8 -11 -17 0 -9 -3 -13 -7
-10 -3 4 -12 2 -19 -4 -8 -7 -14 -7 -19 1 -7 12 -44 -4 -61 -28 -5 -7 -17 -13
-25 -12 -29 4 -40 0 -33 -12 5 -8 1 -7 -10 2 -16 12 -20 12 -30 -1 -6 -9 -17
-14 -25 -11 -10 3 -11 0 -5 -9 7 -12 5 -12 -9 0 -15 12 -17 11 -18 -5 -1 -11
-1 -23 0 -27 1 -5 -3 -6 -9 -2 -6 3 -8 10 -5 15 3 4 -4 10 -16 13 -17 5 -18 3
-7 -11 10 -12 10 -14 0 -8 -7 4 -15 1 -18 -9 -5 -13 -9 -13 -22 -3 -9 7 -13 9
-10 3 3 -5 1 -14 -6 -20 -16 -14 -39 -18 -32 -6 4 5 1 13 -5 17 -8 4 -9 3 -5
-4 4 -7 2 -12 -4 -12 -6 0 -9 -4 -6 -9 3 -4 -8 -7 -24 -5 -24 3 -30 0 -30 -16
0 -11 -5 -20 -11 -20 -5 0 -8 4 -4 9 3 5 0 13 -6 17 -8 4 -9 3 -5 -4 4 -8 -3
-16 -19 -22 -16 -6 -25 -16 -22 -23 6 -17 -25 -19 -36 -3 -5 6 -5 1 -2 -11 7
-24 -10 -33 -18 -10 -3 9 -8 9 -18 -2 -9 -8 -9 -11 -2 -7 9 5 11 2 6 -9 -3 -9
-9 -13 -12 -8 -3 5 -14 12 -24 16 -15 6 -16 4 -6 -14 8 -15 8 -19 0 -15 -22
14 -48 14 -48 0 0 -11 3 -11 16 -1 14 11 14 10 2 -6 -10 -12 -17 -14 -26 -7
-9 7 -16 6 -24 -4 -7 -8 -18 -13 -25 -10 -7 3 -21 -5 -32 -17 -10 -13 -13 -19
-5 -14 10 6 12 4 7 -4 -6 -9 -11 -9 -24 1 -13 11 -14 11 -8 -1 7 -10 3 -12
-14 -6 -13 4 -20 3 -17 -2 3 -5 -3 -15 -15 -22 -15 -9 -18 -10 -13 0 6 8 4 10
-4 5 -7 -5 -10 -14 -7 -22 3 -7 0 -16 -6 -20 -6 -4 -8 -3 -4 4 3 6 2 13 -4 17
-5 3 -10 1 -10 -5 0 -6 -4 -8 -10 -5 -6 4 -7 -1 -3 -11 4 -11 3 -15 -5 -11
-17 11 -64 -14 -57 -31 4 -11 0 -13 -15 -9 -18 5 -19 3 -8 -11 7 -9 8 -14 4
-10 -5 4 -16 2 -24 -5 -13 -10 -14 -9 -7 3 6 12 6 13 -6 2 -12 -11 -12 -14 1
-23 11 -7 8 -8 -12 -5 -15 3 -31 0 -34 -6 -4 -6 -2 -8 3 -5 6 4 14 0 17 -9 3
-9 2 -12 -5 -8 -6 3 -17 -4 -26 -16 -8 -12 -21 -19 -28 -16 -9 3 -12 -1 -10
-13 3 -15 -1 -18 -18 -14 -18 4 -19 3 -7 -6 13 -9 13 -11 -3 -11 -10 0 -20 -7
-23 -15 -3 -8 -14 -17 -24 -20 -10 -3 -21 -13 -25 -22 -5 -15 -4 -15 13 0 10
9 22 17 27 17 4 0 -5 -10 -21 -22 -16 -12 -33 -27 -37 -33 -5 -5 -5 1 -1 15 6
22 5 23 -10 8 -14 -14 -16 -43 -16 -197 l0 -181 4439 0 c3379 0 4442 3 4447
12 5 8 2 9 -10 5 -10 -4 -15 -3 -11 3 3 6 1 10 -6 10 -8 0 -7 5 2 17 8 9 10
14 4 11 -5 -3 -23 9 -40 25 -18 18 -23 28 -13 24 15 -5 16 -4 6 13 -7 10 -16
16 -20 14 -4 -3 -8 2 -8 11 0 10 5 13 12 9 7 -5 8 -3 4 5 -5 7 -13 10 -20 8
-7 -3 -13 4 -13 14 -1 10 3 19 8 19 6 0 7 -5 3 -12 -4 -7 -3 -8 5 -4 14 9 5
26 -14 26 -8 0 -12 8 -10 20 2 11 -1 22 -6 25 -5 4 -6 11 -3 17 4 7 2 8 -5 4
-9 -6 -9 -11 -1 -21 8 -9 8 -15 0 -20 -6 -4 -10 -3 -9 2 1 4 0 10 -1 13 -6 16
-5 48 2 44 4 -3 -2 12 -14 33 -18 30 -19 35 -5 24 15 -12 17 -12 11 3 -3 9
-10 16 -15 16 -5 0 -9 7 -9 16 0 8 -4 12 -10 9 -5 -3 -10 -1 -10 5 0 6 -5 8
-11 4 -8 -4 -9 1 -4 17 4 17 3 20 -3 10 -6 -8 -12 -9 -16 -3 -3 6 -16 8 -28 4
-16 -4 -19 -2 -13 9 6 11 5 11 -5 2 -10 -9 -16 -8 -28 4 -11 10 -17 12 -20 4
-2 -6 -8 -8 -13 -5 -6 3 -17 0 -26 -8 -12 -9 -15 -9 -9 0 4 7 1 12 -8 12 -9 0
-16 5 -16 10 0 6 -3 9 -7 9 -34 -6 -53 3 -53 24 0 12 -3 17 -8 11 -8 -13 -44
-15 -36 -2 3 5 10 6 15 3 15 -10 10 2 -8 16 -11 10 -14 10 -9 2 4 -7 2 -13 -3
-13 -6 0 -11 5 -11 10 0 6 -8 10 -18 10 -11 0 -24 10 -31 23 -6 12 -9 14 -7 5
3 -10 1 -20 -5 -23 -5 -4 -9 -3 -7 2 2 11 -35 73 -45 73 -5 0 -5 -6 -1 -12 4
-7 -2 -4 -14 6 -25 21 -31 36 -7 16 8 -7 15 -8 15 -3 0 5 -12 15 -26 21 -14 7
-23 8 -20 4 3 -5 -1 -9 -8 -9 -8 0 -12 10 -10 24 1 13 -2 21 -7 17 -5 -3 -9 0
-9 7 0 7 -8 9 -21 6 -12 -3 -18 -3 -15 0 3 4 1 12 -6 20 -9 11 -7 12 8 7 15
-5 16 -4 4 4 -9 7 -18 7 -26 1 -8 -6 -14 -4 -18 6 -3 9 -2 13 4 10 16 -10 11
1 -7 16 -11 10 -14 10 -9 2 4 -7 2 -13 -3 -13 -6 0 -11 7 -11 16 0 11 -6 15
-19 11 -14 -3 -18 -1 -14 9 3 8 -1 14 -10 14 -8 0 -17 7 -21 15 -3 8 -11 14
-18 13 -7 -2 -12 3 -10 10 1 8 -2 11 -8 7 -6 -3 -8 -11 -5 -16 4 -5 1 -9 -4
-9 -6 0 -11 9 -11 20 0 11 -5 20 -11 20 -5 0 -7 -4 -4 -10 15 -24 -12 -7 -29
18 -17 26 -61 41 -50 17 3 -5 -2 -1 -10 9 -9 11 -16 14 -16 7 0 -7 -5 -9 -10
-6 -6 4 -7 11 -4 17 5 7 2 8 -7 2 -19 -11 -40 -14 -34 -4 3 4 -3 14 -12 21
-12 10 -14 10 -9 2 9 -16 -6 -17 -20 -3 -13 13 -46 2 -37 -13 3 -6 1 -7 -6 -3
-6 4 -9 12 -6 17 4 5 -1 9 -10 9 -9 0 -13 -5 -10 -10 3 -6 4 -10 0 -10 -3 0
-10 11 -15 25 -7 18 -14 23 -26 18 -12 -4 -15 -3 -10 5 4 7 1 12 -9 12 -10 0
-13 -5 -9 -12 4 -8 3 -10 -2 -5 -5 5 -10 13 -10 18 -3 22 -6 23 -14 4 -7 -16
-9 -16 -9 -4 -1 18 -31 35 -31 17 0 -7 -4 -7 -13 1 -8 6 -17 8 -20 4 -4 -3 -7
-2 -7 4 0 9 -19 19 -58 28 -7 2 -19 -3 -27 -12 -13 -13 -15 -12 -15 5 0 16 -5
19 -22 14 -15 -4 -19 -2 -13 7 6 10 3 11 -15 1 -19 -10 -22 -10 -17 2 3 8 -1
15 -9 15 -7 0 -11 -4 -8 -9 3 -4 -2 -5 -10 -2 -9 3 -16 10 -16 14 0 4 -7 11
-16 14 -14 6 -15 4 -4 -9 11 -13 11 -16 -1 -13 -8 2 -17 8 -21 13 -5 7 -8 6
-8 0 0 -6 -9 -11 -21 -12 -15 -1 -18 1 -10 11 8 9 3 12 -19 10 -17 -1 -30 2
-30 6 0 5 -9 7 -20 5 -11 -2 -22 1 -25 6 -4 5 -10 7 -15 4 -5 -3 -12 0 -16 6
-4 8 -3 9 4 5 7 -4 12 -3 12 1 0 18 -86 49 -114 42 -24 -7 -26 -6 -14 8 11 14
10 15 -11 8 -20 -6 -23 -5 -17 10 5 15 4 16 -9 5 -12 -10 -15 -10 -15 0 0 10
-3 10 -14 1 -11 -9 -16 -9 -22 0 -4 8 -3 9 4 5 7 -4 12 -2 12 5 0 7 -8 9 -21
6 -15 -4 -19 -2 -15 8 3 10 0 12 -12 8 -9 -3 -14 -3 -10 1 12 14 -15 35 -29
24 -9 -7 -13 -7 -13 1 0 6 -5 11 -11 11 -5 0 -7 -4 -4 -10 4 -6 -1 -7 -11 -3
-11 4 -13 8 -6 11 13 4 17 23 5 21 -22 -4 -33 2 -27 14 5 8 2 8 -9 -2 -13 -10
-17 -10 -17 -1 0 9 -4 9 -17 -1 -14 -12 -16 -12 -8 0 6 11 4 13 -7 8 -9 -3
-24 1 -35 9 -10 9 -12 12 -4 8 9 -5 12 -3 7 4 -4 7 -14 12 -22 12 -8 0 -14 4
-14 9 0 5 -9 13 -20 16 -12 4 -17 11 -13 18 4 7 -2 5 -12 -3 -11 -9 -16 -10
-11 -2 4 7 2 12 -4 12 -6 0 -8 5 -4 13 5 8 2 7 -9 -2 -15 -12 -17 -12 -11 4 5
13 4 16 -4 11 -7 -4 -12 -2 -12 5 0 8 -4 8 -15 -1 -13 -11 -14 -10 -9 3 10 26
-4 39 -29 25 -21 -10 -21 -10 -7 7 14 17 14 17 -7 7 -14 -8 -24 -9 -28 -2 -3
5 -1 10 6 10 18 0 5 10 -20 15 -12 2 -19 0 -16 -6 4 -5 11 -6 17 -3 7 4 8 2 4
-4 -8 -14 -33 -5 -40 14 -3 8 -12 11 -22 7 -13 -5 -15 -3 -9 8 8 12 6 12 -9 0
-9 -8 -16 -10 -15 -5 4 23 -2 34 -20 34 -10 0 -22 7 -25 16 -5 12 -3 14 7 8 7
-5 4 -1 -6 8 -11 10 -24 15 -31 11 -6 -4 -5 1 2 10 12 14 11 16 -8 12 -17 -3
-20 -1 -15 16 6 19 5 20 -15 9 -20 -11 -21 -10 -10 10 7 13 8 20 3 17 -13 -8
-55 12 -48 23 10 16 -1 11 -16 -7 -12 -14 -12 -16 0 -8 10 5 12 4 7 -4 -4 -6
-12 -9 -17 -5 -5 3 -7 10 -4 15 6 9 -4 11 -51 12 -14 1 -20 6 -17 14 4 11 8
11 22 1 14 -11 14 -11 3 4 -7 9 -22 15 -32 13 -22 -4 -36 10 -20 20 17 11 11
25 -11 25 -11 0 -17 5 -14 10 4 6 11 7 17 4 6 -4 8 -2 4 4 -3 5 0 13 6 16 7 3
2 4 -12 1 -14 -3 -19 -2 -12 1 6 3 9 11 6 16 -4 6 -2 8 3 5 6 -4 14 0 17 9 3
8 2 13 -3 9 -5 -3 -8 3 -6 12 2 10 4 22 4 26 1 5 7 5 14 2 6 -4 3 1 -7 9 -19
16 -19 16 5 16 13 0 19 4 13 8 -6 4 -14 16 -17 26 -6 16 -5 17 8 6 13 -11 14
-10 9 5 -6 14 -4 16 6 10 8 -5 11 -4 6 3 -3 6 -2 13 3 17 5 3 9 14 8 25 -1 10
-4 17 -7 15 -13 -8 -3 37 12 54 12 15 13 22 5 31 -9 10 -9 11 1 6 6 -4 12 -2
12 3 0 6 -4 11 -10 11 -10 0 -8 35 3 46 3 4 4 -3 2 -15 -2 -13 0 -19 6 -15 6
3 8 8 5 11 -3 3 0 15 6 26 9 17 8 19 -7 13 -15 -5 -16 -4 -6 8 7 8 9 21 5 27
-4 8 -3 9 4 5 7 -4 12 -3 12 3 0 5 -6 11 -12 14 -10 3 -10 8 1 18 9 9 11 9 7
2 -10 -18 -1 -16 14 3 11 12 11 15 0 12 -7 -2 -15 3 -17 10 -3 7 -1 12 4 11
20 -3 27 2 13 11 -10 6 -11 10 -2 10 6 0 12 5 12 11 0 5 -6 7 -12 3 -10 -6
-10 -5 -1 7 11 14 13 19 13 40 0 5 5 7 10 4 6 -3 10 -1 10 4 0 6 -6 11 -12 11
-9 0 -8 4 2 10 11 7 11 10 2 10 -7 0 -10 5 -7 10 4 6 11 8 16 5 5 -3 6 2 2 11
-5 13 -3 15 7 9 10 -6 12 -4 7 9 -4 9 -3 15 2 12 4 -3 17 4 27 17 10 12 12 16
4 10 -8 -7 -19 -13 -24 -13 -6 0 0 7 12 16 12 8 28 12 35 8 6 -4 9 -4 5 1 -11
11 10 45 28 45 8 0 12 5 9 10 -4 6 -12 7 -18 4 -7 -4 -8 -3 -4 2 5 5 14 9 19
9 6 0 13 6 16 14 3 8 0 11 -5 8 -5 -3 -10 0 -10 8 0 11 5 12 20 3 11 -6 17 -6
13 0 -3 5 5 22 19 38 17 20 21 31 14 41 -8 9 -5 11 13 8 23 -4 23 -4 3 12 -16
12 -16 14 -3 10 20 -7 34 10 30 36 -3 13 2 17 15 15 13 -2 17 2 15 16 -2 10 1
15 7 12 5 -4 12 -2 16 4 3 5 1 10 -6 10 -7 0 -9 3 -5 8 4 4 13 7 19 7 7 0 12
12 11 27 -1 20 3 25 14 20 10 -3 13 -1 8 6 -7 11 6 17 27 13 5 -1 6 3 2 9 -3
6 -11 8 -16 5 -5 -3 -6 1 -3 9 3 9 9 15 12 14 20 -2 25 4 12 13 -12 9 -10 10
8 6 19 -5 21 -3 11 9 -9 11 -9 14 1 14 8 0 10 8 7 21 -5 17 -3 18 10 8 12 -11
14 -10 12 2 -3 19 11 50 20 44 4 -2 7 9 6 26 -1 23 2 29 13 24 12 -4 13 -3 2
10 -8 10 -9 15 -2 15 7 0 9 7 5 17 -4 11 -3 14 5 9 7 -4 12 -2 12 4 0 6 4 9 8
6 5 -3 9 0 10 7 0 7 2 29 3 49 2 33 4 35 15 20 12 -15 13 -15 9 6 -2 12 -7 28
-11 35 -5 7 0 6 11 -3 17 -14 18 -14 7 6 -9 17 -7 24 10 38 15 13 17 21 9 29
-6 6 -11 16 -11 22 0 5 5 3 10 -5 8 -13 10 -12 10 3 0 10 4 15 10 12 6 -3 7 1
4 9 -3 9 -11 13 -17 9 -6 -4 -7 -1 -3 6 5 7 14 10 22 7 7 -3 16 0 20 6 5 7 2
8 -6 3 -10 -6 -12 -4 -7 9 4 9 3 14 -2 11 -5 -3 -12 -1 -16 5 -3 5 1 10 10 10
13 0 14 4 4 22 -10 18 -9 20 5 15 11 -4 15 -3 11 4 -4 5 -1 17 7 26 8 10 8 14
1 10 -6 -4 -14 -3 -18 3 -3 5 2 10 11 10 13 0 15 3 7 11 -13 13 -5 49 11 49 6
0 4 5 -4 10 -11 7 -11 10 -2 10 8 0 10 5 6 12 -5 8 0 7 11 -2 12 -10 16 -10
11 -2 -4 7 -2 19 4 27 10 12 17 12 34 3 20 -11 20 -10 6 7 -9 11 -10 16 -2 11
6 -4 12 -2 12 3 0 6 6 10 13 8 6 -1 11 3 10 8 0 6 6 16 14 24 13 12 15 11 9
-10 l-6 -24 12 23 c6 13 17 21 23 18 7 -2 12 4 11 17 -1 13 4 21 12 19 8 -1
11 2 7 8 -3 5 -1 10 4 10 6 0 11 4 11 10 0 5 -8 7 -17 4 -10 -2 -3 3 15 12 32
18 42 34 20 34 -6 0 -8 3 -5 6 4 4 13 2 20 -5 12 -9 14 -6 12 14 -2 14 2 28 7
32 7 3 8 1 4 -5 -4 -7 -3 -12 2 -12 6 0 13 11 16 25 4 17 11 23 19 18 7 -4 5
2 -3 12 -12 15 -12 17 -1 10 11 -6 13 -4 9 7 -4 8 -1 15 7 15 7 0 11 -7 8 -16
-2 -9 2 -6 9 7 8 12 18 19 23 15 4 -4 5 -3 1 4 -4 7 -14 10 -24 7 -9 -2 -7 1
6 7 12 7 22 16 22 21 0 5 -6 6 -12 3 -7 -4 -2 2 11 13 15 12 22 25 18 35 -4
11 -2 14 9 10 17 -6 18 8 2 27 -7 8 -2 6 12 -5 14 -11 22 -16 18 -11 -4 5 -2
16 5 24 10 13 9 14 -2 8 -9 -6 -12 -5 -9 5 3 8 12 13 20 13 10 -1 13 6 10 24
-3 16 -1 23 6 18 6 -3 13 -2 16 3 4 5 1 13 -5 17 -9 5 -3 15 17 32 16 13 23
21 17 18 -7 -4 -13 -2 -13 5 0 7 8 9 21 6 16 -4 18 -3 8 9 -14 17 6 48 24 37
6 -3 7 -1 3 5 -4 6 -12 10 -19 8 -7 -1 -9 -1 -4 1 4 3 4 10 1 15 -4 6 -2 8 3
5 6 -4 17 1 24 10 10 12 10 14 2 9 -19 -11 -16 5 5 21 9 8 11 12 5 8 -19 -9
-16 6 5 22 9 8 11 12 5 8 -7 -3 -13 -2 -13 3 0 6 7 12 15 16 9 3 12 12 8 23
-6 16 -5 17 12 3 18 -15 18 -14 0 13 -10 15 -15 30 -11 34 3 3 6 1 6 -5 0 -7
5 -12 12 -12 6 0 9 3 5 6 -3 4 1 13 9 22 13 12 13 16 2 23 -12 8 -4 13 16 10
5 -1 4 5 -3 13 -11 13 -10 17 4 22 13 5 14 9 3 15 -10 7 -10 9 0 9 6 0 12 8
12 18 0 10 6 24 13 31 7 9 8 12 0 7 -7 -4 -10 0 -9 11 2 9 9 19 17 21 11 3 11
1 -1 -8 -12 -9 -12 -11 -1 -8 8 2 15 14 16 26 1 18 -1 20 -14 9 -11 -8 -11 -6
2 9 9 12 15 28 12 37 -4 8 -1 18 6 23 7 4 10 3 5 -4 -3 -6 -2 -13 3 -16 11 -7
9 13 -3 33 -6 10 -5 12 2 7 7 -4 12 -2 12 3 0 6 -8 11 -17 12 -15 0 -15 2 2 9
13 6 15 9 5 9 -13 1 -13 2 0 11 10 6 11 10 3 10 -7 0 -13 4 -13 10 0 5 8 7 18
4 14 -5 14 -4 3 4 -15 11 -24 75 -9 66 4 -3 5 2 2 10 -3 9 -11 13 -18 10 -6
-3 -4 0 4 8 22 20 24 48 3 49 -16 0 -16 1 2 9 11 5 14 9 8 9 -7 1 -13 6 -13
12 0 5 4 8 9 4 5 -3 13 0 17 6 4 8 3 9 -5 5 -6 -4 -14 0 -17 8 -3 9 -11 13
-17 9 -6 -3 -7 -1 -3 6 6 9 11 9 21 1 10 -9 13 -7 10 7 -1 10 -7 17 -13 16 -6
-2 -9 7 -7 18 3 13 -3 23 -18 29 -12 5 -16 9 -9 9 6 1 12 6 12 12 0 5 -4 7
-10 4 -5 -3 -10 0 -10 8 0 19 -34 48 -59 50 -12 1 -19 6 -17 13 3 7 -3 18 -12
26 -11 9 -14 10 -8 1 4 -7 3 -13 -1 -13 -5 0 -15 6 -22 13 -11 10 -13 9 -8 -6
6 -17 5 -17 -15 -3 -19 14 -23 14 -33 -1 -10 -13 -14 -13 -20 -3 -5 9 -4 11 3
6 8 -5 10 -1 5 9 -4 13 -8 14 -14 4 -4 -7 -5 -17 -3 -21 3 -4 -9 -8 -26 -8
-18 0 -29 -4 -25 -10 3 -5 -3 -10 -14 -10 -11 0 -27 -10 -36 -22 -9 -13 -15
-16 -13 -8 2 9 -1 15 -7 15 -5 0 -9 -3 -8 -7 1 -3 -4 -11 -11 -18 -11 -8 -16
-8 -22 1 -5 8 -3 9 6 4 9 -6 11 -4 5 5 -6 10 -13 7 -27 -11 -11 -13 -17 -18
-13 -11 4 7 -1 12 -12 13 -10 0 -13 3 -5 6 19 7 14 26 -5 19 -17 -6 -17 -5 0
8 19 15 23 31 5 20 -10 -6 -10 -5 -1 7 6 8 12 19 13 24 1 6 4 12 7 15 4 3 3
-2 -1 -10 -4 -8 1 -4 12 9 18 23 19 27 5 48 -10 15 -11 23 -4 23 8 0 9 5 2 19
-6 10 -9 20 -7 22 14 16 14 60 0 73 -14 14 -14 16 0 16 10 0 13 6 10 15 -4 9
0 15 7 15 11 0 11 2 -1 9 -8 6 -19 7 -25 4 -5 -4 0 5 13 19 17 19 20 27 10 31
-10 4 -10 6 1 6 11 1 11 4 0 19 -7 9 -9 14 -5 10 13 -11 36 39 29 59 -5 12 -3
14 8 8 11 -7 11 -5 -1 10 -8 10 -10 16 -3 12 6 -4 14 -3 18 3 3 6 0 13 -9 16
-20 8 -17 43 4 37 8 -2 4 2 -9 10 l-23 14 22 6 c19 5 21 9 11 21 -9 11 -9 16
0 22 8 5 9 3 4 -6 -5 -9 -4 -11 4 -6 9 6 9 11 0 22 -6 7 -16 11 -22 7 -6 -3
-7 -1 -3 6 4 6 12 9 17 6 5 -4 9 2 9 12 0 15 2 16 10 3 6 -9 10 -10 10 -3 0 6
-4 15 -10 18 -5 3 -10 11 -10 16 0 6 4 8 8 5 5 -3 9 1 9 9 0 8 -4 12 -9 9 -7
-4 -13 35 -9 59 1 5 -3 6 -8 3 -5 -3 -11 1 -14 9 -4 10 -1 12 11 9 14 -5 13
-3 -2 10 -18 15 -33 52 -17 42 4 -3 13 5 21 17 12 19 11 21 -2 9 -13 -10 -15
-9 -10 14 3 19 7 22 13 12 5 -7 9 -9 9 -4 0 5 -8 18 -17 29 -17 19 -17 20 4 8
19 -10 22 -9 17 3 -3 9 -15 18 -25 21 -15 5 -17 10 -9 20 9 10 6 15 -11 20
-20 7 -21 8 -5 17 14 8 15 13 5 24 -10 12 -9 13 4 8 11 -4 15 0 13 13 -2 10 0
23 4 28 13 18 -1 85 -17 85 -13 0 -13 3 -3 15 10 12 8 16 -14 25 -14 5 -26 12
-26 15 0 4 5 3 12 -1 8 -5 9 -2 5 9 -3 10 -2 17 2 17 5 0 7 9 4 20 -3 11 -9
20 -13 20 -4 0 -11 7 -14 16 -6 14 -4 15 9 4 14 -12 15 -11 4 13 -7 15 -16 24
-21 20 -6 -3 -2 7 8 23 17 26 17 28 1 15 -18 -14 -18 -15 -21 29 -1 8 -8 15
-17 14 -8 -1 -15 7 -15 17 0 12 4 15 11 9 8 -7 11 -3 10 11 -1 11 -8 25 -16
30 -10 6 -10 9 -1 9 6 0 12 5 12 11 0 5 -6 7 -12 3 -9 -5 -8 -2 1 9 8 10 11
20 7 24 -3 3 -6 0 -6 -7 0 -8 -8 -3 -20 10 -24 28 -26 37 -3 19 14 -13 14 -11
-1 20 -10 18 -13 30 -7 27 17 -11 13 10 -4 24 -8 7 -15 18 -15 24 0 6 4 4 10
-4 5 -8 12 -12 15 -8 3 3 -1 13 -10 22 -11 10 -14 24 -10 38 3 13 3 18 -2 13
-7 -9 -16 -11 -39 -6 -4 0 0 9 7 19 7 9 9 14 5 10 -10 -9 -43 32 -38 46 2 5
-3 13 -10 19 -9 6 -8 7 5 3 21 -7 22 7 1 28 -8 9 -11 16 -4 16 7 0 6 5 -2 14
-9 10 -15 11 -21 2 -4 -6 -5 1 -3 16 4 21 1 26 -13 23 -10 -2 -18 3 -18 10 0
8 4 12 9 9 14 -9 9 14 -6 29 -11 10 -12 17 -4 25 8 8 4 9 -13 6 -19 -5 -21 -4
-9 5 13 10 13 11 0 12 -8 1 -19 1 -23 0 -4 -1 -3 7 2 18 6 10 8 20 6 23 -3 3
2 5 9 5 11 0 13 -5 5 -19 -15 -28 -5 -21 21 15 14 18 16 26 7 18 -18 -14 -24
-2 -7 15 7 7 4 10 -12 10 -17 -1 -22 4 -20 18 3 15 -1 18 -17 13 -21 -5 -34 6
-37 31 -2 8 -6 17 -10 20 -4 4 -4 -1 -1 -10 3 -10 1 -20 -6 -24 -7 -4 -9 -3
-4 1 4 5 0 19 -8 32 -16 25 -13 43 9 43 6 0 12 11 12 24 0 14 -3 23 -7 20 -4
-2 -9 3 -13 11 -3 8 -10 15 -16 15 -6 0 -8 -4 -5 -10 3 -5 1 -10 -4 -10 -6 0
-11 5 -11 11 0 5 -4 8 -9 5 -4 -3 -17 4 -27 16 -11 12 -14 18 -8 15 7 -4 15 0
18 9 3 8 2 13 -3 10 -5 -3 -11 1 -14 9 -4 8 -1 12 7 9 20 -8 15 49 -6 64 -10
7 -18 19 -17 25 0 9 2 8 6 -1 2 -6 10 -9 15 -6 7 4 8 2 4 -4 -4 -7 -2 -12 3
-12 14 0 14 17 0 25 -22 14 -69 12 -69 -3 0 -10 -6 -8 -20 8 -11 13 -20 32
-20 44 0 12 4 17 8 11 4 -5 13 -11 21 -13 12 -3 12 0 2 12 -8 9 -11 25 -8 35
3 15 1 18 -11 14 -11 -5 -13 -3 -7 7 6 10 4 12 -8 7 -9 -3 -18 1 -21 10 -4 8
-13 13 -21 9 -10 -3 -15 1 -15 12 0 15 -2 15 -10 2 -8 -13 -10 -12 -10 3 0 9
-5 17 -11 17 -5 0 -7 -6 -3 -12 5 -10 4 -10 -6 -1 -7 6 -19 9 -26 6 -9 -3 -14
2 -15 13 0 18 -1 17 -9 -1 l-9 -20 -1 20 c-2 11 -2 27 -1 35 0 10 -1 11 -5 3
-8 -18 -25 -16 -18 1 3 8 0 17 -5 21 -6 3 -9 11 -6 16 3 5 0 6 -8 3 -8 -3 -18
0 -23 7 -5 8 -3 10 7 4 12 -7 12 -6 1 7 -7 8 -10 23 -6 32 5 12 0 16 -17 17
-13 0 -18 3 -11 6 17 7 15 20 -4 27 -9 3 -12 2 -9 -5 4 -6 1 -10 -6 -8 -28 3
-40 -1 -33 -13 4 -8 3 -10 -2 -5 -5 5 -9 14 -9 20 -1 7 -7 11 -14 9 -7 -1 -10
2 -7 7 10 16 -5 41 -24 41 -11 0 -22 5 -26 12 -4 7 -3 8 5 4 8 -6 8 -1 0 18
-10 22 -15 24 -27 13 -11 -8 -14 -8 -9 0 9 14 -8 26 -45 30 -17 2 -28 -2 -28
-10 0 -8 -3 -7 -9 3 -6 8 -7 18 -4 24 3 5 1 6 -6 2 -6 -4 -9 -11 -6 -16 3 -5
0 -12 -6 -16 -8 -4 -9 -3 -5 4 4 7 2 12 -4 12 -6 0 -8 5 -4 13 5 7 2 7 -10 -2
-15 -12 -17 -12 -14 0 2 9 -5 14 -20 13 -21 -1 -23 2 -20 26 3 21 1 27 -11 22
-9 -3 -12 -1 -7 6 3 6 1 14 -5 18 -8 4 -9 3 -5 -4 12 -20 -1 -13 -34 18 -18
17 -37 30 -43 30 -6 0 -3 -6 8 -13 14 -11 15 -16 5 -22 -7 -5 -11 -4 -8 1 6
12 -28 44 -38 36 -4 -4 -4 -1 0 6 4 7 12 10 17 7 5 -3 6 1 3 9 -3 8 -22 22
-42 32 -20 9 -41 22 -45 28 -6 7 -7 5 -4 -6 7 -20 -21 -18 -37 3 -6 8 -23 20
-38 28 -16 8 -26 16 -23 19 2 3 11 -1 20 -8 13 -11 14 -10 9 4 -3 9 -13 16
-21 16 -9 0 -11 5 -7 13 5 8 2 7 -9 -2 -15 -12 -17 -12 -11 4 5 12 4 16 -3 12
-6 -4 -13 -1 -16 5 -3 10 -8 10 -18 -1 -12 -12 -12 -13 0 -6 10 6 12 4 6 -5
-6 -10 -12 -7 -25 10 -11 15 -19 19 -24 11 -11 -18 -26 -13 -19 7 6 15 5 15
-10 3 -15 -12 -18 -10 -28 18 -9 24 -17 31 -37 31 -21 0 -24 2 -12 10 12 8 10
10 -10 10 -14 0 -20 4 -15 8 6 4 11 13 13 21 3 12 0 12 -12 2 -12 -10 -14 -9
-9 8 3 13 1 21 -6 21 -7 0 -9 -5 -5 -12 4 -7 -2 -4 -14 6 -12 11 -22 15 -22
10 -1 -5 -10 2 -22 16 -14 16 -19 19 -15 8 4 -10 2 -18 -3 -18 -6 0 -10 4 -10
8 0 4 -16 7 -35 7 -20 -1 -39 3 -42 8 -3 6 -1 7 5 3 7 -4 12 -3 12 3 0 5 -9
13 -21 16 -11 4 -18 9 -15 12 3 3 1 15 -5 26 -7 13 -7 17 -1 13 6 -3 14 -1 18
5 5 8 3 9 -6 4 -10 -6 -12 -4 -6 10 5 14 4 15 -7 7 -10 -8 -16 -6 -25 9 -7 11
-17 17 -22 14 -6 -4 -8 -11 -4 -16 3 -5 10 -6 16 -3 7 4 8 2 4 -4 -5 -8 -15
-8 -33 -1 -22 8 -24 7 -14 -4 9 -11 7 -17 -6 -28 -9 -8 -14 -9 -10 -3 4 7 0
14 -8 18 -8 3 -17 0 -21 -6 -5 -7 -2 -8 6 -3 9 6 11 4 6 -4 -9 -13 -21 -6 -21
12 0 7 -9 11 -18 10 -12 0 -16 4 -13 13 3 7 0 16 -6 20 -7 4 -8 3 -4 -4 4 -7
2 -12 -3 -12 -6 0 -11 5 -11 11 0 6 -9 9 -20 6 -11 -3 -23 0 -27 5 -4 7 -1 8
7 3 9 -5 11 -4 6 4 -6 9 -11 9 -22 0 -11 -9 -14 -9 -14 0 0 7 -5 9 -12 5 -24
-15 -47 -10 -68 13 -11 13 -15 23 -8 23 6 0 8 3 5 6 -4 4 -13 1 -22 -6 -8 -7
-15 -8 -15 -3 0 15 -59 11 -64 -4 -3 -8 -10 -12 -15 -8 -5 3 -13 1 -16 -5 -4
-6 -16 -8 -27 -4 -14 4 -18 2 -14 -5 4 -6 4 -11 -1 -12 -41 -5 -62 -5 -58 1 2
3 -1 12 -6 20 -8 13 -10 13 -20 0 -8 -12 -9 -11 -4 7 5 17 1 22 -17 25 -17 2
-22 9 -20 22 3 17 1 18 -11 7 -13 -10 -17 -9 -26 6 -8 14 -10 15 -11 3 0 -13
-2 -13 -10 0 -7 12 -12 11 -31 -5 -12 -11 -19 -14 -15 -7 4 7 1 12 -9 12 -10
0 -13 -5 -9 -12 4 -7 3 -8 -4 -4 -6 4 -8 14 -5 22 5 14 3 15 -17 4 -15 -8 -20
-8 -16 -1 4 6 2 11 -3 11 -6 0 -11 -5 -11 -11z m-380 -414 c-7 -9 -15 -13 -19
-10 -3 3 1 10 9 15 21 14 24 12 10 -5z m1798 -150 c-3 -3 -9 2 -12 12 -6 14
-5 15 5 6 7 -7 10 -15 7 -18z m-2224 -54 c-8 -8 -43 -8 -38 0 2 4 13 7 24 6
10 -1 17 -3 14 -6z m2303 -23 c-3 -8 -6 -5 -6 6 -1 11 2 17 5 13 3 -3 4 -12 1
-19z m468 -338 c3 -6 -1 -7 -9 -4 -18 7 -21 14 -7 14 6 0 13 -4 16 -10z m302
-295 c0 -8 -4 -12 -9 -9 -5 3 -6 10 -3 15 9 13 12 11 12 -6z m-3746 -58 c-10
-9 -11 -8 -5 6 3 10 9 15 12 12 3 -3 0 -11 -7 -18z m4196 -1133 c-3 -3 -12 -4
-19 -1 -8 3 -5 6 6 6 11 1 17 -2 13 -5z m-4602 -534 c-1 -11 -4 -22 -7 -25 -4
-5 -4 34 1 43 4 8 7 -1 6 -18z m0 -120 c3 -5 1 -10 -4 -10 -6 0 -11 5 -11 10
0 6 2 10 4 10 3 0 8 -4 11 -10z m4605 -100 c0 -5 -5 -10 -11 -10 -5 0 -7 5 -4
10 3 6 8 10 11 10 2 0 4 -4 4 -10z m-10 -344 c0 -3 -4 -8 -10 -11 -5 -3 -10
-1 -10 4 0 6 5 11 10 11 6 0 10 -2 10 -4z m350 -111 c7 -9 8 -15 2 -15 -5 0
-12 7 -16 15 -3 8 -4 15 -2 15 2 0 9 -7 16 -15z m-5040 -645 c0 -5 -2 -10 -4
-10 -3 0 -8 5 -11 10 -3 6 -1 10 4 10 6 0 11 -4 11 -10z m830 -960 c0 -5 -5
-10 -11 -10 -5 0 -7 5 -4 10 3 6 8 10 11 10 2 0 4 -4 4 -10z m3423 -535 c-3
-9 -8 -14 -10 -11 -3 3 -2 9 2 15 9 16 15 13 8 -4z m-3366 -380 c0 -8 -4 -12
-9 -9 -5 3 -6 10 -3 15 9 13 12 11 12 -6z m3123 -20 c-7 -8 -17 -15 -23 -15
-6 0 -2 7 9 15 25 19 30 19 14 0z m-3133 -121 c-3 -3 -12 -4 -19 -1 -8 3 -5 6
6 6 11 1 17 -2 13 -5z m-192 -413 c3 -5 2 -12 -3 -15 -5 -3 -9 1 -9 9 0 17 3
19 12 6z m3065 -151 c0 -5 -8 -10 -17 -10 -15 0 -16 2 -3 10 19 12 20 12 20 0z
m-3838 -327 c-6 -2 -9 -10 -6 -15 4 -7 2 -8 -5 -4 -13 9 -5 26 12 25 9 0 8 -2
-1 -6z m-729 -468 c-3 -9 -8 -14 -10 -11 -3 3 -2 9 2 15 9 16 15 13 8 -4z
m5525 -40 c-3 -3 -9 2 -12 12 -6 14 -5 15 5 6 7 -7 10 -15 7 -18z m-5825 -100
c-3 -9 -8 -14 -10 -11 -3 3 -2 9 2 15 9 16 15 13 8 -4z m6261 -16 c3 -3 -5 -5
-19 -5 -13 0 -22 3 -19 7 4 8 30 6 38 -2z m-6369 -18 c3 -5 2 -12 -3 -15 -5
-3 -9 1 -9 9 0 17 3 19 12 6z m6392 -13 c-3 -8 -6 -5 -6 6 -1 11 2 17 5 13 3
-3 4 -12 1 -19z m424 -125 c13 -17 13 -17 -6 -3 -11 8 -22 16 -24 17 -2 2 0 3
6 3 6 0 17 -8 24 -17z m-7371 -113 c0 -5 -4 -10 -10 -10 -5 0 -10 5 -10 10 0
6 5 10 10 10 6 0 10 -4 10 -10z"/>
<path d="M4781 8783 c-1 -17 16 -25 25 -12 4 7 3 9 -4 5 -5 -3 -13 0 -15 6 -4
9 -6 10 -6 1z"/>
<path d="M5126 8667 c3 -10 9 -15 12 -12 3 3 0 11 -7 18 -10 9 -11 8 -5 -6z"/>
<path d="M5275 8600 c3 -5 8 -10 11 -10 2 0 4 5 4 10 0 6 -5 10 -11 10 -5 0
-7 -4 -4 -10z"/>
<path d="M5616 8357 c3 -10 9 -15 12 -12 3 3 0 11 -7 18 -10 9 -11 8 -5 -6z"/>
<path d="M6566 7498 c3 -5 10 -6 15 -3 13 9 11 12 -6 12 -8 0 -12 -4 -9 -9z"/>
<path d="M6620 7400 c0 -5 5 -10 11 -10 5 0 7 5 4 10 -3 6 -8 10 -11 10 -2 0
-4 -4 -4 -10z"/>
<path d="M6670 7339 c0 -5 5 -7 10 -4 6 3 10 8 10 11 0 2 -4 4 -10 4 -5 0 -10
-5 -10 -11z"/>
<path d="M6815 6980 c3 -5 8 -10 11 -10 2 0 4 5 4 10 0 6 -5 10 -11 10 -5 0
-7 -4 -4 -10z"/>
<path d="M2300 4500 c0 -5 5 -10 11 -10 5 0 7 5 4 10 -3 6 -8 10 -11 10 -2 0
-4 -4 -4 -10z"/>
<path d="M2437 4219 c7 -7 15 -10 18 -7 3 3 -2 9 -12 12 -14 6 -15 5 -6 -5z"/>
<path d="M6776 3632 c-3 -5 1 -9 9 -9 8 0 12 4 9 9 -3 4 -7 8 -9 8 -2 0 -6 -4
-9 -8z"/>
<path d="M3160 2489 c0 -5 5 -7 10 -4 6 3 10 8 10 11 0 2 -4 4 -10 4 -5 0 -10
-5 -10 -11z"/>
<path d="M2940 2080 c-9 -6 -10 -10 -3 -10 6 0 15 5 18 10 8 12 4 12 -15 0z"/>
<path d="M6071 2026 c-9 -10 -9 -16 -1 -21 6 -4 14 -4 17 -1 4 3 1 6 -7 6 -10
0 -10 3 0 15 7 8 10 15 7 15 -2 0 -10 -6 -16 -14z"/>
<path d="M2860 1989 c0 -5 5 -7 10 -4 6 3 10 8 10 11 0 2 -4 4 -10 4 -5 0 -10
-5 -10 -11z"/>
<path d="M2163 1615 c0 -8 4 -12 9 -9 5 3 6 10 3 15 -9 13 -12 11 -12 -6z"/>
<path d="M2026 1498 c3 -5 10 -6 15 -3 13 9 11 12 -6 12 -8 0 -12 -4 -9 -9z"/>
<path d="M7100 1111 c0 -6 4 -13 10 -16 6 -3 7 1 4 9 -7 18 -14 21 -14 7z"/>
</g>
</svg>
