<?xml version="1.0" standalone="no"?>
<!DOCTYPE svg PUBLIC "-//W3C//DTD SVG 20010904//EN"
 "http://www.w3.org/TR/2001/REC-SVG-20010904/DTD/svg10.dtd">
<svg version="1.0" xmlns="http://www.w3.org/2000/svg"
 width="260.000000pt" height="260.000000pt" viewBox="0 0 260.000000 260.000000"
 preserveAspectRatio="xMidYMid meet">
<metadata>
Created by potrace 1.11, written by Peter Selinger 2001-2013
</metadata>
<g transform="translate(0.000000,260.000000) scale(0.100000,-0.100000)"
fill="#000000" stroke="none">
<path d="M1145 2459 c-4 -10 -13 -19 -21 -19 -8 0 -14 -5 -14 -12 0 -15 -50
-68 -64 -68 -5 0 -20 -10 -32 -21 -14 -13 -38 -22 -60 -23 -29 -2 -39 -7 -46
-26 -12 -31 -28 -41 -55 -35 -16 4 -23 -1 -29 -17 -4 -13 -22 -41 -40 -62 -18
-21 -31 -43 -28 -47 3 -5 -2 -9 -10 -9 -14 0 -46 -51 -46 -73 0 -6 -7 -19 -17
-29 -9 -10 -11 -18 -5 -18 12 0 -3 -55 -22 -79 -6 -8 -12 -28 -12 -45 -1 -17
-7 -65 -13 -106 -17 -118 -16 -236 3 -297 5 -15 0 -18 -35 -19 -51 0 -61 -15
-55 -84 11 -138 168 -370 249 -370 36 0 48 -43 54 -199 4 -96 2 -140 -12 -200
-20 -86 -32 -109 -86 -162 -32 -31 -40 -35 -50 -23 -9 11 -8 19 6 34 17 19 17
20 -3 20 -11 0 -34 -13 -50 -30 -17 -16 -39 -30 -49 -30 -10 0 -34 -13 -53
-28 -82 -66 -237 -152 -307 -171 -23 -7 -88 -34 -143 -62 l-100 -50 0 -50 0
-49 1226 0 c1225 0 1261 1 1203 31 -8 4 -26 10 -41 14 -15 3 -52 25 -82 49
-29 24 -68 52 -86 61 -39 20 -178 65 -202 65 -21 0 -159 62 -196 88 -15 11
-38 23 -52 27 -13 4 -32 18 -42 31 -10 12 -32 25 -48 29 -17 4 -30 7 -30 8 0
1 9 48 20 105 15 75 27 113 46 138 40 52 10 40 -44 -17 -133 -144 -160 -160
-270 -160 -39 0 -60 4 -68 15 -6 9 -14 13 -17 10 -3 -3 -4 1 -3 10 1 8 5 19 9
22 4 4 7 12 7 18 0 6 -5 4 -10 -4 -6 -10 -10 -11 -10 -2 0 6 -5 12 -11 12 -5
0 -8 -4 -5 -9 3 -5 -3 -11 -15 -14 -16 -4 -18 -3 -8 9 8 10 8 18 0 27 -12 15
3 37 26 37 7 0 13 8 12 18 0 10 -3 12 -6 4 -7 -17 -23 -5 -23 18 0 33 32 42
59 17 13 -12 21 -17 18 -11 -8 13 31 35 66 37 22 2 25 6 21 24 -5 17 1 25 24
37 16 8 49 36 73 61 43 43 79 58 79 33 1 -7 10 4 21 26 21 38 21 39 2 77 -17
37 -43 60 -43 39 0 -6 4 -10 10 -10 5 0 9 -3 8 -8 -1 -4 6 -22 15 -39 18 -33
6 -48 -12 -16 -8 15 -26 18 -118 19 -86 1 -115 5 -136 19 -15 9 -24 22 -20 28
5 8 8 7 11 -1 2 -7 16 -11 30 -11 19 1 22 3 8 6 -13 4 -3 13 40 34 33 17 66
37 74 46 14 14 8 15 -56 9 -62 -6 -73 -4 -97 14 -27 21 -36 50 -16 50 5 0 7 5
3 11 -3 6 -1 15 7 19 10 7 13 48 14 170 0 145 -2 163 -17 171 -10 5 -18 14
-18 20 0 39 -48 94 -90 104 -3 0 -15 4 -28 9 l-23 8 26 20 c14 10 25 24 25 30
0 7 -4 7 -12 0 -9 -7 -17 -6 -25 3 -10 10 -9 14 2 19 8 3 15 13 15 23 0 15 -2
16 -10 3 -8 -11 -12 -12 -18 -3 -4 7 -22 13 -39 15 -26 2 -30 6 -28 27 1 14 8
27 14 29 6 2 8 9 4 15 -12 20 -10 47 4 47 8 0 21 13 31 29 17 31 36 37 141 48
39 4 56 1 62 -8 5 -8 9 -9 9 -3 0 12 50 27 85 27 11 -1 24 5 28 13 9 16 37 19
37 3 0 -5 4 -7 10 -4 5 3 27 -11 49 -32 51 -50 71 -65 71 -56 0 4 7 -2 15 -13
10 -13 14 -15 15 -5 0 18 50 -35 50 -54 0 -7 13 -18 29 -23 31 -11 35 -20 46
-127 4 -33 13 -72 20 -86 19 -36 65 -216 66 -259 2 -86 -3 -170 -12 -175 -5
-4 -9 -11 -9 -16 0 -18 58 23 70 49 8 18 8 33 -1 59 -9 28 -14 110 -10 160 1
7 13 20 29 28 15 9 18 13 7 10 -45 -16 -49 -12 -46 35 1 25 7 63 12 84 11 42
10 202 -2 226 -4 8 -9 31 -12 50 -5 39 -32 122 -53 161 -7 14 -10 36 -7 47 4
16 1 22 -12 22 -12 0 -15 5 -11 16 4 11 -1 18 -15 21 -14 4 -19 12 -16 24 3
12 -2 20 -14 24 -10 4 -18 11 -16 18 1 6 -8 16 -20 22 -13 5 -23 12 -23 16 0
10 -40 53 -40 43 -1 -5 -9 1 -19 13 -10 12 -30 25 -45 29 -14 3 -26 10 -26 16
0 5 -13 14 -30 19 -16 6 -30 15 -30 21 0 5 -4 6 -10 3 -5 -3 -10 3 -10 14 0
12 -3 20 -7 20 -22 -4 -41 3 -61 21 -12 11 -31 20 -43 20 -12 0 -23 8 -26 20
-6 22 -18 26 -29 8 -5 -8 -11 -6 -20 6 -8 12 -14 14 -19 6 -6 -9 -9 -9 -15 -1
-10 18 -130 21 -130 4 0 -7 -4 -13 -10 -13 -5 0 -7 6 -4 14 3 7 -2 16 -10 19
-9 4 -17 -1 -21 -14z m-294 -442 c-10 -9 -11 -8 -5 6 3 10 9 15 12 12 3 -3 0
-11 -7 -18z m292 -544 c-7 -2 -19 -2 -25 0 -7 3 -2 5 12 5 14 0 19 -2 13 -5z
m-279 -71 c-9 -21 -11 -29 -23 -72 -5 -19 -9 -29 -10 -22 -1 7 -6 10 -13 6 -6
-4 -4 3 4 15 11 16 14 31 8 51 -4 15 -4 34 1 41 5 8 9 10 9 4 0 -5 6 -1 12 10
11 19 13 19 16 2 2 -10 0 -26 -4 -35z m340 15 c12 -18 9 -22 -20 -31 -18 -6
-20 -3 -16 24 5 32 18 35 36 7z m-47 -119 c6 -1 9 -8 6 -17 -9 -23 -35 -51
-43 -46 -4 2 -7 -6 -6 -18 0 -12 6 -22 13 -22 20 0 26 -14 13 -30 -7 -8 -9
-15 -5 -15 4 0 3 -6 -3 -12 -5 -7 -13 -28 -17 -46 -4 -18 -15 -38 -26 -45 -10
-6 -19 -17 -19 -24 0 -7 -9 -17 -20 -23 -17 -9 -20 -8 -20 14 0 13 6 27 13 29
6 3 2 6 -10 6 -31 1 -44 32 -47 114 -3 63 -1 73 20 94 13 13 24 30 24 38 0 14
20 14 127 3z m389 -410 c8 -9 -29 -58 -41 -54 -5 2 -23 -1 -40 -6 -16 -5 -41
-11 -55 -14 -14 -3 -32 -7 -42 -10 -9 -3 -19 0 -23 6 -3 5 -15 10 -26 10 -10
0 -19 5 -19 11 0 6 -9 8 -20 4 -14 -4 -22 -1 -26 10 -9 24 11 41 30 26 9 -7
16 -8 20 -2 4 5 21 8 39 5 17 -3 55 1 82 9 50 14 109 16 121 5z m-450 -76
c-11 -10 -15 4 -8 28 l7 25 3 -23 c2 -13 1 -26 -2 -30z m374 -37 c0 -8 -9 -19
-19 -25 -24 -12 -44 -13 -37 -1 4 5 0 11 -6 14 -8 3 -3 9 12 15 35 15 50 14
50 -3z m183 -235 c-3 -12 -8 -19 -11 -16 -5 6 5 36 12 36 2 0 2 -9 -1 -20z
m-13 -65 c-7 -8 -8 -15 -2 -15 16 0 -6 -81 -26 -96 -9 -8 -14 -14 -9 -14 4 0
-4 -18 -18 -40 -33 -52 -33 -73 -1 -60 30 11 37 4 25 -27 -18 -47 -61 -93
-112 -117 -49 -23 -61 -25 -183 -22 -109 3 -139 8 -185 27 -57 25 -79 41 -79
58 0 6 -4 11 -10 11 -5 0 -10 9 -10 20 0 24 9 25 35 6 16 -12 21 -11 33 0 10
10 11 18 4 27 -14 17 0 38 26 40 12 1 22 5 22 9 0 4 11 3 25 -4 13 -6 22 -14
20 -18 -8 -13 63 -22 84 -11 10 6 21 7 25 3 11 -11 79 -10 101 1 11 6 26 16
33 24 7 7 20 13 27 13 9 0 12 6 8 18 -3 9 -2 14 2 10 5 -5 15 1 22 12 8 11 18
18 23 15 9 -6 37 34 63 90 24 52 48 78 60 66 7 -7 6 -15 -3 -26z m-90 -43 c0
-24 -67 -87 -102 -95 -15 -4 -34 -4 -42 -1 -14 5 -13 9 6 29 25 25 117 85 130
85 4 0 8 -8 8 -18z"/>
<path d="M1263 163 c0 -7 6 -13 12 -13 7 0 18 -6 24 -14 16 -19 89 -3 116 26
l20 20 -25 -8 c-26 -9 -49 -9 -111 -2 -25 3 -36 1 -36 -9z"/>
<path d="M1175 1820 c-3 -5 -2 -10 4 -10 5 0 13 5 16 10 3 6 2 10 -4 10 -5 0
-13 -4 -16 -10z"/>
<path d="M1760 1647 c0 -5 9 -20 20 -34 11 -14 20 -21 20 -14 0 6 0 13 0 16 0
3 -2 4 -5 3 -2 -2 -11 6 -19 17 -9 11 -16 16 -16 12z"/>
<path d="M1690 1622 c0 -4 -19 -8 -42 -7 -24 0 -62 -5 -85 -12 -24 -7 -43 -9
-43 -6 0 3 -7 0 -15 -7 -8 -6 -20 -8 -26 -4 -8 4 -9 3 -5 -5 6 -8 1 -10 -17
-6 -25 7 -25 5 -23 -40 1 -33 7 -50 20 -57 16 -9 16 -12 2 -33 -20 -30 -20
-35 -2 -35 8 0 21 -17 29 -38 18 -46 50 -69 92 -67 17 1 48 3 70 4 l40 1 -34
21 c-30 18 -33 22 -18 31 10 5 49 12 89 15 58 5 68 8 54 18 -9 7 -16 17 -16
22 0 26 -36 43 -143 67 -23 6 -26 10 -17 21 25 30 160 25 160 -6 0 -5 6 -9 14
-9 7 0 19 -7 26 -15 14 -17 35 -21 25 -5 -3 6 -2 10 4 10 23 0 -24 83 -60 106
-21 13 -40 28 -44 34 -7 12 -35 14 -35 2z m-10 -211 c0 -6 -4 -13 -10 -16 -5
-3 -10 1 -10 9 0 9 5 16 10 16 6 0 10 -4 10 -9z"/>
<path d="M2012 1398 c-8 -11 -6 -17 9 -26 10 -7 19 -19 19 -27 0 -8 5 -15 11
-15 6 0 9 16 7 37 -3 40 -26 55 -46 31z"/>
<path d="M1815 1330 c3 -5 8 -10 11 -10 2 0 4 5 4 10 0 6 -5 10 -11 10 -5 0
-7 -4 -4 -10z"/>
<path d="M2002 1220 c0 -14 2 -19 5 -12 2 6 2 18 0 25 -3 6 -5 1 -5 -13z"/>
<path d="M1576 1081 c8 -16 25 -36 39 -45 23 -15 24 -15 20 6 -5 25 -43 68
-61 68 -10 0 -9 -7 2 -29z"/>
<path d="M1370 646 c0 -2 7 -6 15 -10 8 -3 15 -1 15 4 0 6 -7 10 -15 10 -8 0
-15 -2 -15 -4z"/>
<path d="M1580 584 c0 -8 5 -12 10 -9 6 4 8 11 5 16 -9 14 -15 11 -15 -7z"/>
</g>
</svg>
